<svg xmlns="http://www.w3.org/2000/svg" width="960.001" height="19.13" viewBox="0 0 960.001 19.13"><defs><style>.a{fill:#d7c080;}.b{fill:#669583;}.c{fill:#2b2e34;}</style></defs><g transform="translate(0 -10852.87)"><path class="a" d="M172.137-88.031H447.844v-19.13H172.137Z" transform="translate(-93.343 10960.031)"/><path class="a" d="M568.171-88.031H292.464v-19.13H568.171Z" transform="translate(62.035 10960.031)"/><path class="b" d="M669.931-88.031h-166.8v-19.13h166.8Z" transform="translate(290.069 10960.031)"/><path class="b" d="M95.2-88.031h69.3v-19.13H95.2Z" transform="translate(-95.198 10960.031)"/><path class="b" d="M583.734-88.031h-166.8v-19.13h166.8Z" transform="translate(220.239 10960.031)"/><path class="c" d="M158.813-88.031h33.059v-19.13H158.813Z" transform="translate(-110.548 10960.031)"/><path class="c" d="M444.747-88.031H411.688v-19.13h33.059Z" transform="translate(215.988 10960.031)"/><path class="c" d="M557.832-88.031H524.773v-19.13h33.059Z" transform="translate(362.014 10960.031)"/><path class="c" d="M185.281-88.031H218.34v-19.13H185.281Z" transform="translate(-76.37 10960.031)"/><path class="c" d="M418.279-88.031H385.22v-19.13h33.059Z" transform="translate(181.81 10960.031)"/><path class="b" d="M225.757-88.031h52.39v-19.13h-52.39Z" transform="translate(-24.104 10960.031)"/><path class="b" d="M388.7-88.031h-52.39v-19.13H388.7Z" transform="translate(118.649 10960.031)"/><path class="a" d="M555.5-88.031H484.654v-19.13H555.5Z" transform="translate(286.127 10960.031)"/></g></svg>