<?xml version="1.0" encoding="utf-8"?>
<!-- Generator: Adobe Illustrator 25.2.1, SVG Export Plug-In . SVG Version: 6.00 Build 0)  -->
<svg version="1.1" id="Layer_1" xmlns="http://www.w3.org/2000/svg" xmlns:xlink="http://www.w3.org/1999/xlink" x="0px" y="0px"
	 viewBox="0 0 177 86.4" style="enable-background:new 0 0 177 86.4;" xml:space="preserve">
<style type="text/css">
	.st0{fill:#2B2E34;}
</style>
<g transform="translate(-293.615 -133.872)">
	<g transform="translate(356.623 133.872)">
		<path class="st0" d="M51,72.3h-0.4c-9.5,0-18.6-3.7-25.4-10.4l0.6-0.6c6.5,6.4,15.2,10,24.3,10.1v-2.8H51V72.3z"/>
		<path class="st0" d="M25.8,11l-0.6-0.6C31.9,3.7,41,0,50.5,0H51v3.7h-0.9V0.9C41,1,32.3,4.6,25.8,11z"/>
		<path class="st0" d="M27.4,13.4C20.8,5.6,11.1,1,0.9,0.9v2.8H0V0h0.4C11.1,0,21.2,4.7,28,12.8L27.4,13.4z"/>
		<path class="st0" d="M0.4,72.3H0v-3.7h0.9v2.8c10.2-0.1,19.9-4.7,26.5-12.5l0.7,0.6C21.2,67.6,11.1,72.3,0.4,72.3z"/>
	</g>
	<g transform="translate(356.675 215.453)">
		<path class="st0" d="M3.6,4.7H2.3l-0.6-1H1.2v1H0V0.1h1.7c1-0.1,1.8,0.6,1.9,1.6c0,0.1,0,0.1,0,0.2c0,0.6-0.3,1.2-0.8,1.5L3.6,4.7
			z M1.7,2.6c0.4,0,0.8-0.3,0.8-0.8c0-0.4-0.3-0.8-0.8-0.8H1.2v1.5H1.7z"/>
		<path class="st0" d="M6.2,0.1h3.2v1h-2v1.1h1.6v1H7.4v0.5h2.1v1H6.2L6.2,0.1z"/>
		<path class="st0" d="M11.7,3.9l0.9-0.7c0.2,0.3,0.6,0.5,1,0.5c0.4,0,0.6-0.1,0.6-0.4c0-0.2-0.1-0.3-0.4-0.4l-0.5-0.2
			c-0.8-0.1-1.3-0.9-1.1-1.6c0.1-0.7,0.8-1.2,1.5-1.1c0.6,0,1.1,0.2,1.5,0.6l-0.7,0.7c-0.2-0.2-0.5-0.3-0.8-0.3
			c-0.3,0-0.4,0.1-0.4,0.3s0.1,0.3,0.3,0.3l0.6,0.2c0.9,0.3,1.2,0.7,1.2,1.4c0,0.8-0.5,1.4-1.7,1.4C12.8,4.8,12.1,4.4,11.7,3.9z"/>
		<path class="st0" d="M17.9,0.1h1.2v4.6h-1.2V0.1z"/>
		<path class="st0" d="M21.9,0.1h1.8c1.3,0,2.3,1,2.3,2.3c0,1.3-1,2.3-2.3,2.3h-1.8L21.9,0.1z M23.5,3.6c0.7,0,1.2-0.6,1.2-1.3
			c0-0.6-0.5-1.2-1.2-1.2h-0.4v2.5H23.5z"/>
		<path class="st0" d="M28.5,0.1h3.2v1h-2v1.1h1.6v1h-1.6v0.5h2.1v1h-3.3L28.5,0.1z"/>
		<path class="st0" d="M35.5,2.4v2.3h-1.1V0c0,0,0-0.1,0.1,0l2.9,2.4V0.1h1.1v4.6c0,0.1,0,0.1-0.1,0L35.5,2.4z"/>
		<path class="st0" d="M43.3,4.7c-1.3,0-2.3-1-2.4-2.3c0,0,0,0,0-0.1c0-1.3,1-2.3,2.3-2.3c0,0,0,0,0,0c0.8,0,1.5,0.3,2,1l-0.9,0.6
			c-0.3-0.5-1-0.7-1.6-0.4c-0.4,0.2-0.6,0.7-0.5,1.1c-0.1,0.6,0.4,1.2,1,1.3c0,0,0.1,0,0.1,0c0.5,0,0.9-0.2,1.1-0.6l0.9,0.6
			C44.9,4.4,44.2,4.8,43.3,4.7z"/>
		<path class="st0" d="M47.8,0.1H51v1h-2v1.1h1.6v1H49v0.5h2.1v1h-3.3L47.8,0.1z"/>
	</g>
	<path class="st0" d="M407.2,202.9c-9.8,0-19.1-4.4-25.4-12l0.7-0.6c11.2,13.6,31.4,15.6,45.1,4.3c7-5.8,11.2-14.2,11.6-23.2l0-0.4
		h30.6V169h-30.6l0-0.4c-0.8-17.7-15.8-31.3-33.4-30.5c-9.1,0.4-17.5,4.6-23.3,11.6l-0.7-0.6c11.5-14,32.3-16,46.3-4.5
		c7.1,5.8,11.4,14.3,11.9,23.5h30.6v3.8H440C439,189.3,424.6,202.9,407.2,202.9z"/>
	<path class="st0" d="M407.2,199.9c-9.2,0-17.9-4.2-23.6-11.5l0.7-0.5c9.9,12.6,28.2,14.9,40.8,5s14.9-28.2,5-40.8
		c-9.9-12.6-28.2-14.9-40.8-5c-1.9,1.4-3.5,3.1-5,5l-0.7-0.5c10.2-13,29-15.3,42-5.1s15.3,29,5.1,42
		C425.1,195.7,416.4,199.9,407.2,199.9L407.2,199.9z"/>
	<path class="st0" d="M420.1,156.9h7.4v1c-1.1,0-2.9,0.4-2.9,1.8v23.4h-10.8L396.3,160v20.2c0,1.4,1.7,1.8,3.3,1.8v1h-8.2v-1
		c1.2,0,3.3-0.4,3.3-1.8v-20.5c0-1.8-1.8-1.8-3.3-1.8v-1h19.5l12,16v-13.1c0-1.4-1.8-1.8-2.9-1.8L420.1,156.9z"/>
	<path class="st0" d="M357.1,202.9c-17.4,0-31.9-13.6-32.8-31h-30.6v-3.8h30.6c1.1-18.1,16.6-32,34.7-30.9
		c18.1,1.1,32,16.6,30.9,34.7C388.9,189.3,374.5,202.9,357.1,202.9L357.1,202.9z M294.5,171h30.6l0,0.4
		c0.8,17.7,15.8,31.3,33.4,30.5c17.7-0.8,31.3-15.8,30.5-33.4c-0.8-17.7-15.8-31.3-33.4-30.5c-16.5,0.8-29.8,14-30.5,30.5
		c0,0.4,0,0.4-5.2,0.4h-25.4V171z"/>
	<path class="st0" d="M357.1,199.9c-16.5,0-29.9-13.4-29.9-29.9s13.4-29.9,29.9-29.9S387,153.5,387,170
		C387,186.5,373.6,199.9,357.1,199.9z M357.1,140.9c-16.1,0-29.1,13-29.1,29.1s13,29.1,29.1,29.1c16.1,0,29.1-13,29.1-29.1
		C386.1,154,373.1,141,357.1,140.9z"/>
	<g transform="translate(336.301 155.301)">
		<path class="st0" d="M20.8,0C34,0,41.5,6.2,41.5,14.7S34,29.4,20.8,29.4S0,23.2,0,14.7S7.6,0,20.8,0z M20.8,28.3
			c5.4,0,7.1-2.8,7.1-13.5S26.2,1.1,20.8,1.1s-7.1,2.5-7.1,13.7C13.7,25.6,15.4,28.3,20.8,28.3L20.8,28.3z"/>
	</g>
</g>
</svg>
