<svg xmlns="http://www.w3.org/2000/svg" width="177" height="86.354" viewBox="0 0 177 86.354"><defs><style>.a{fill:#fff;}</style></defs><g transform="translate(-293.615 -133.872)"><g transform="translate(356.623 133.872)"><path class="a" d="M398.46,199.789h-.44a35.92,35.92,0,0,1-25.363-10.4l.617-.625a35.046,35.046,0,0,0,24.308,10.141v-2.8h.878Z" transform="translate(-347.477 -127.52)"/><path class="a" d="M373.275,144.893l-.617-.625a35.923,35.923,0,0,1,25.362-10.4h.44v3.684h-.878v-2.8A35.046,35.046,0,0,0,373.275,144.893Z" transform="translate(-347.476 -133.872)"/><path class="a" d="M377.451,147.244a35.206,35.206,0,0,0-26.485-12.49v2.8h-.878v-3.684h.438a36.092,36.092,0,0,1,27.6,12.8Z" transform="translate(-350.088 -133.872)"/><path class="a" d="M350.526,200.033h-.438v-3.684h.878v2.8a35.211,35.211,0,0,0,26.487-12.493l.672.567A36.091,36.091,0,0,1,350.526,200.033Z" transform="translate(-350.088 -127.764)"/></g><g transform="translate(356.675 215.453)"><path class="a" d="M353.762,211.637h-1.319l-.636-1.043h-.454v1.043h-1.218v-4.55h1.727a1.743,1.743,0,0,1,1.912,1.787,1.59,1.59,0,0,1-.823,1.472Zm-1.961-2.013a.753.753,0,0,0,0-1.506h-.447v1.506Z" transform="translate(-350.135 -206.981)"/><path class="a" d="M355.685,207.087h3.192v1.024H356.9v1.057h1.646v.97H356.9v.475h2.067v1.024h-3.286Z" transform="translate(-349.493 -206.981)"/><path class="a" d="M360.605,210.867l.883-.663a1.155,1.155,0,0,0,.951.5c.362,0,.576-.107.576-.361,0-.2-.147-.288-.449-.388l-.534-.18a1.382,1.382,0,0,1,.421-2.731,1.842,1.842,0,0,1,1.512.6l-.7.73a.945.945,0,0,0-.75-.328c-.293,0-.441.134-.441.315s.1.26.32.335l.6.2c.909.3,1.217.737,1.217,1.379,0,.837-.521,1.438-1.726,1.438A2.255,2.255,0,0,1,360.605,210.867Z" transform="translate(-348.924 -206.987)"/><path class="a" d="M366.143,207.087h1.217v4.55h-1.217Z" transform="translate(-348.283 -206.981)"/><path class="a" d="M369.742,207.087H371.5a2.275,2.275,0,1,1,0,4.55h-1.759Zm1.626,3.519a1.245,1.245,0,0,0,0-2.488h-.407v2.488Z" transform="translate(-347.866 -206.981)"/><path class="a" d="M375.646,207.087h3.192v1.024h-1.974v1.057h1.646v.97h-1.646v.475h2.067v1.024h-3.286Z" transform="translate(-347.183 -206.981)"/><path class="a" d="M382.041,209.38v2.268H380.9v-4.61c0-.04.021-.073.094-.012l2.857,2.354V207.1h1.144v4.617c0,.055-.019.074-.094.013Z" transform="translate(-346.576 -206.992)"/><path class="a" d="M389.223,211.7a2.319,2.319,0,0,1-2.369-2.335,2.294,2.294,0,0,1,2.3-2.328,2.211,2.211,0,0,1,1.967.977l-.917.623a1.142,1.142,0,0,0-2.106.729,1.151,1.151,0,0,0,1.117,1.279,1.1,1.1,0,0,0,1.071-.629l.935.6A2.1,2.1,0,0,1,389.223,211.7Z" transform="translate(-345.886 -206.987)"/><path class="a" d="M392.968,207.087h3.191v1.024h-1.973v1.057h1.645v.97h-1.645v.475h2.066v1.024h-3.285Z" transform="translate(-345.179 -206.981)"/></g><path class="a" d="M398.024,202.56a32.805,32.805,0,0,1-25.379-11.969l.678-.559A32.012,32.012,0,0,0,430,171.125l.019-.42h30.571v-2.072H430.022l-.019-.42a32.012,32.012,0,0,0-56.694-18.89l-.678-.559a32.891,32.891,0,0,1,58.228,18.991h30.613v3.829H430.859A32.817,32.817,0,0,1,398.024,202.56Z" transform="translate(9.143 0.336)"/><path class="a" d="M397.835,199.3a29.78,29.78,0,0,1-23.574-11.482l.692-.542a29.062,29.062,0,1,0,0-35.831l-.692-.543a29.941,29.941,0,1,1,23.575,48.4Z" transform="translate(9.332 0.642)"/><path class="a" d="M409.915,154.506h7.376v1.024c-1.107,0-2.87.411-2.87,1.843v23.359H403.6L386.148,157.62v20.243c0,1.434,1.679,1.844,3.278,1.844v1.024h-8.2v-1.024c1.228,0,3.278-.411,3.278-1.844v-20.49c0-1.8-1.762-1.843-3.278-1.843v-1.024h19.546l12.006,15.981V157.373c0-1.433-1.762-1.843-2.867-1.843Z" transform="translate(10.138 2.388)"/><path class="a" d="M357.061,202.56a32.816,32.816,0,0,1-32.834-30.976H293.615v-3.829h30.612a32.89,32.89,0,1,1,32.834,34.8Zm-62.568-31.855h30.572l.019.42a32.011,32.011,0,1,0,0-2.911c0,.42,0,.42-5.219.42H294.493Z" transform="translate(0 0.336)"/><path class="a" d="M353.586,199.3a29.94,29.94,0,1,1,29.94-29.94A29.973,29.973,0,0,1,353.586,199.3Zm0-59a29.062,29.062,0,1,0,29.062,29.062A29.095,29.095,0,0,0,353.586,140.3Z" transform="translate(3.475 0.642)"/><g transform="translate(336.301 155.301)"><path class="a" d="M352.635,153.079c13.19,0,20.759,6.186,20.759,14.705s-7.569,14.705-20.759,14.705-20.761-6.186-20.761-14.705S339.443,153.079,352.635,153.079Zm0,28.329c5.406,0,7.093-2.768,7.093-13.538s-1.687-13.71-7.093-13.71-7.094,2.508-7.094,13.71C345.541,178.64,347.228,181.408,352.635,181.408Z" transform="translate(-331.874 -153.079)"/></g></g></svg>