<svg xmlns="http://www.w3.org/2000/svg" width="52.46" height="151.954" viewBox="0 0 52.46 151.954"><defs><style>.a{fill:#2b2e34;}</style></defs><path class="a" d="M-49.3,0A25.845,25.845,0,0,0-74.883-23.092a25.878,25.878,0,0,0-25.744,26.01A25.878,25.878,0,0,0-74.883,28.927,25.84,25.84,0,0,0-49.352,6.268l88.806,0L20.98,24.937l4.385,4.431L51.327,3.138,25.365-23.092,20.98-18.661,39.454,0Zm-5.994,2.918A19.691,19.691,0,0,1-74.883,22.709,19.691,19.691,0,0,1-94.472,2.918,19.69,19.69,0,0,1-74.883-16.873,19.691,19.691,0,0,1-55.294,2.918Z" transform="translate(23.092 51.327) rotate(-90)"/></svg>