<svg xmlns="http://www.w3.org/2000/svg" width="18" height="17.999" viewBox="0 0 18 17.999"><defs><style>.a{fill:#2b2e34;}</style></defs><path class="a" d="M9-10.7A3.943,3.943,0,0,0,5.063-6.757,3.943,3.943,0,0,0,9-2.816a3.943,3.943,0,0,0,3.938-3.941A3.943,3.943,0,0,0,9-10.7ZM9-3.941A2.817,2.817,0,0,1,6.188-6.757,2.817,2.817,0,0,1,9-9.573a2.817,2.817,0,0,1,2.813,2.816A2.817,2.817,0,0,1,9-3.941Zm9-2.816a.569.569,0,0,0-.25-.468L14.836-9.176l.682-3.442a.561.561,0,0,0-.155-.506.552.552,0,0,0-.506-.155l-3.438.682L9.468-15.514a.583.583,0,0,0-.935,0L6.581-12.6l-3.438-.686a.552.552,0,0,0-.506.155.564.564,0,0,0-.155.506l.682,3.445L.25-7.225A.569.569,0,0,0,0-6.757a.569.569,0,0,0,.25.468L3.164-4.338,2.482-.9a.562.562,0,0,0,.155.506.552.552,0,0,0,.506.155L6.581-.918,8.532,2A.56.56,0,0,0,9,2.25.569.569,0,0,0,9.468,2L11.419-.918l3.438.682a.538.538,0,0,0,.506-.155A.564.564,0,0,0,15.518-.9l-.682-3.442L17.75-6.289A.569.569,0,0,0,18-6.757ZM13.9-5.066a.565.565,0,0,0-.239.577L14.249-1.5,11.268-2.1a.546.546,0,0,0-.577.239L9,.675,7.309-1.853a.56.56,0,0,0-.468-.25.572.572,0,0,0-.109.011L3.751-1.5l.591-2.985A.565.565,0,0,0,4.1-5.062L1.575-6.754,4.1-8.448a.565.565,0,0,0,.239-.577l-.591-2.985,2.981.591a.554.554,0,0,0,.577-.239L9-14.189l1.691,2.531a.554.554,0,0,0,.577.239l2.981-.591-.591,2.985a.565.565,0,0,0,.239.577l2.528,1.695Z" transform="translate(0 15.749)"/></svg>